<svg width="28" height="28" viewBox="0 0 28 28" fill="none" xmlns="http://www.w3.org/2000/svg">
<g clip-path="url(#clip0_1388_7137)">
<path d="M0.422876 0.422998C0.984106 -0.138232 1.89899 -0.138232 2.46022 0.422998L27.5772 25.54C28.1384 26.1012 28.1384 27.0161 27.5772 27.5773C27.016 28.1385 26.1011 28.1385 25.5398 27.5773L0.422876 2.46034C-0.138354 1.89911 -0.138354 0.984228 0.422876 0.422998Z" fill="#E5E5E5"/>
<path d="M0.422876 27.5773C-0.138354 27.0161 -0.138354 26.1012 0.422876 25.54L25.5398 0.422998C26.1011 -0.138232 27.016 -0.138232 27.5772 0.422998C28.1384 0.984228 28.1384 1.89911 27.5772 2.46034L2.46022 27.5773C1.89899 28.1385 0.984106 28.1385 0.422876 27.5773Z" fill="#E5E5E5"/>
</g>
<defs>
<clipPath id="clip0_1388_7137">
<rect width="28" height="28" fill="white"/>
</clipPath>
</defs>
</svg>
